<?xml version="1.0" encoding="utf-8" standalone="no"?>
<!DOCTYPE svg PUBLIC "-//W3C//DTD SVG 1.1//EN"
  "http://www.w3.org/Graphics/SVG/1.1/DTD/svg11.dtd">
<svg xmlns:xlink="http://www.w3.org/1999/xlink" width="288pt" height="144pt" viewBox="0 0 288 144" xmlns="http://www.w3.org/2000/svg" version="1.1">
 <metadata>
  <rdf:RDF xmlns:dc="http://purl.org/dc/elements/1.1/" xmlns:cc="http://creativecommons.org/ns#" xmlns:rdf="http://www.w3.org/1999/02/22-rdf-syntax-ns#">
   <cc:Work>
    <dc:type rdf:resource="http://purl.org/dc/dcmitype/StillImage"/>
    <dc:date>2023-05-03T23:25:10.749125</dc:date>
    <dc:format>image/svg+xml</dc:format>
    <dc:creator>
     <cc:Agent>
      <dc:title>Matplotlib v3.7.1, https://matplotlib.org/</dc:title>
     </cc:Agent>
    </dc:creator>
   </cc:Work>
  </rdf:RDF>
 </metadata>
 <defs>
  <style type="text/css">*{stroke-linejoin: round; stroke-linecap: butt}</style>
 </defs>
 <g id="figure_1">
  <g id="patch_1">
   <path d="M 0 144 
L 288 144 
L 288 0 
L 0 0 
L 0 144 
z
" style="fill: none"/>
  </g>
  <g id="axes_1">
   <g id="patch_2">
    <path d="M 40.1825 108.61 
L 276.8175 108.61 
L 276.8175 11.7 
L 40.1825 11.7 
z
" style="fill: #ffffff"/>
   </g>
   <g id="PathCollection_1">
    <path d="M 257.097917 93.958333 
C 257.495721 93.958333 257.877286 93.800284 258.158577 93.518994 
C 258.439867 93.237703 258.597917 92.856138 258.597917 92.458333 
C 258.597917 92.060529 258.439867 91.678964 258.158577 91.397673 
C 257.877286 91.116383 257.495721 90.958333 257.097917 90.958333 
C 256.700112 90.958333 256.318547 91.116383 256.037256 91.397673 
C 255.755966 91.678964 255.597917 92.060529 255.597917 92.458333 
C 255.597917 92.856138 255.755966 93.237703 256.037256 93.518994 
C 256.318547 93.800284 256.700112 93.958333 257.097917 93.958333 
z
" clip-path="url(#p16b2f66574)"/>
   </g>
   <g id="matplotlib.axis_1">
    <g id="xtick_1">
     <g id="line2d_1">
      <defs>
       <path id="m193e1c2389" d="M 0 0 
L 0 3.5 
" style="stroke: #000000; stroke-width: 0.8"/>
      </defs>
      <g>
       <use xlink:href="#m193e1c2389" x="40.1825" y="108.61" style="stroke: #000000; stroke-width: 0.8"/>
      </g>
     </g>
     <g id="text_1">
      <!-- −10 -->
      <g transform="translate(31.740625 121.68875) scale(0.08 -0.08)">
       <defs>
        <path id="DejaVuSans-2212" d="M 678 2272 
L 4684 2272 
L 4684 1741 
L 678 1741 
L 678 2272 
z
" transform="scale(0.015625)"/>
        <path id="DejaVuSans-31" d="M 794 531 
L 1825 531 
L 1825 4091 
L 703 3866 
L 703 4441 
L 1819 4666 
L 2450 4666 
L 2450 531 
L 3481 531 
L 3481 0 
L 794 0 
L 794 531 
z
" transform="scale(0.015625)"/>
        <path id="DejaVuSans-30" d="M 2034 4250 
Q 1547 4250 1301 3770 
Q 1056 3291 1056 2328 
Q 1056 1369 1301 889 
Q 1547 409 2034 409 
Q 2525 409 2770 889 
Q 3016 1369 3016 2328 
Q 3016 3291 2770 3770 
Q 2525 4250 2034 4250 
z
M 2034 4750 
Q 2819 4750 3233 4129 
Q 3647 3509 3647 2328 
Q 3647 1150 3233 529 
Q 2819 -91 2034 -91 
Q 1250 -91 836 529 
Q 422 1150 422 2328 
Q 422 3509 836 4129 
Q 1250 4750 2034 4750 
z
" transform="scale(0.015625)"/>
       </defs>
       <use xlink:href="#DejaVuSans-2212"/>
       <use xlink:href="#DejaVuSans-31" x="83.789062"/>
       <use xlink:href="#DejaVuSans-30" x="147.412109"/>
      </g>
     </g>
    </g>
    <g id="xtick_2">
     <g id="line2d_2">
      <g>
       <use xlink:href="#m193e1c2389" x="79.621667" y="108.61" style="stroke: #000000; stroke-width: 0.8"/>
      </g>
     </g>
     <g id="text_2">
      <!-- −8 -->
      <g transform="translate(73.724792 121.68875) scale(0.08 -0.08)">
       <defs>
        <path id="DejaVuSans-38" d="M 2034 2216 
Q 1584 2216 1326 1975 
Q 1069 1734 1069 1313 
Q 1069 891 1326 650 
Q 1584 409 2034 409 
Q 2484 409 2743 651 
Q 3003 894 3003 1313 
Q 3003 1734 2745 1975 
Q 2488 2216 2034 2216 
z
M 1403 2484 
Q 997 2584 770 2862 
Q 544 3141 544 3541 
Q 544 4100 942 4425 
Q 1341 4750 2034 4750 
Q 2731 4750 3128 4425 
Q 3525 4100 3525 3541 
Q 3525 3141 3298 2862 
Q 3072 2584 2669 2484 
Q 3125 2378 3379 2068 
Q 3634 1759 3634 1313 
Q 3634 634 3220 271 
Q 2806 -91 2034 -91 
Q 1263 -91 848 271 
Q 434 634 434 1313 
Q 434 1759 690 2068 
Q 947 2378 1403 2484 
z
M 1172 3481 
Q 1172 3119 1398 2916 
Q 1625 2713 2034 2713 
Q 2441 2713 2670 2916 
Q 2900 3119 2900 3481 
Q 2900 3844 2670 4047 
Q 2441 4250 2034 4250 
Q 1625 4250 1398 4047 
Q 1172 3844 1172 3481 
z
" transform="scale(0.015625)"/>
       </defs>
       <use xlink:href="#DejaVuSans-2212"/>
       <use xlink:href="#DejaVuSans-38" x="83.789062"/>
      </g>
     </g>
    </g>
    <g id="xtick_3">
     <g id="line2d_3">
      <g>
       <use xlink:href="#m193e1c2389" x="119.060833" y="108.61" style="stroke: #000000; stroke-width: 0.8"/>
      </g>
     </g>
     <g id="text_3">
      <!-- −6 -->
      <g transform="translate(113.163958 121.68875) scale(0.08 -0.08)">
       <defs>
        <path id="DejaVuSans-36" d="M 2113 2584 
Q 1688 2584 1439 2293 
Q 1191 2003 1191 1497 
Q 1191 994 1439 701 
Q 1688 409 2113 409 
Q 2538 409 2786 701 
Q 3034 994 3034 1497 
Q 3034 2003 2786 2293 
Q 2538 2584 2113 2584 
z
M 3366 4563 
L 3366 3988 
Q 3128 4100 2886 4159 
Q 2644 4219 2406 4219 
Q 1781 4219 1451 3797 
Q 1122 3375 1075 2522 
Q 1259 2794 1537 2939 
Q 1816 3084 2150 3084 
Q 2853 3084 3261 2657 
Q 3669 2231 3669 1497 
Q 3669 778 3244 343 
Q 2819 -91 2113 -91 
Q 1303 -91 875 529 
Q 447 1150 447 2328 
Q 447 3434 972 4092 
Q 1497 4750 2381 4750 
Q 2619 4750 2861 4703 
Q 3103 4656 3366 4563 
z
" transform="scale(0.015625)"/>
       </defs>
       <use xlink:href="#DejaVuSans-2212"/>
       <use xlink:href="#DejaVuSans-36" x="83.789062"/>
      </g>
     </g>
    </g>
    <g id="xtick_4">
     <g id="line2d_4">
      <g>
       <use xlink:href="#m193e1c2389" x="158.5" y="108.61" style="stroke: #000000; stroke-width: 0.8"/>
      </g>
     </g>
     <g id="text_4">
      <!-- −4 -->
      <g transform="translate(152.603125 121.68875) scale(0.08 -0.08)">
       <defs>
        <path id="DejaVuSans-34" d="M 2419 4116 
L 825 1625 
L 2419 1625 
L 2419 4116 
z
M 2253 4666 
L 3047 4666 
L 3047 1625 
L 3713 1625 
L 3713 1100 
L 3047 1100 
L 3047 0 
L 2419 0 
L 2419 1100 
L 313 1100 
L 313 1709 
L 2253 4666 
z
" transform="scale(0.015625)"/>
       </defs>
       <use xlink:href="#DejaVuSans-2212"/>
       <use xlink:href="#DejaVuSans-34" x="83.789062"/>
      </g>
     </g>
    </g>
    <g id="xtick_5">
     <g id="line2d_5">
      <g>
       <use xlink:href="#m193e1c2389" x="197.939167" y="108.61" style="stroke: #000000; stroke-width: 0.8"/>
      </g>
     </g>
     <g id="text_5">
      <!-- −2 -->
      <g transform="translate(192.042292 121.68875) scale(0.08 -0.08)">
       <defs>
        <path id="DejaVuSans-32" d="M 1228 531 
L 3431 531 
L 3431 0 
L 469 0 
L 469 531 
Q 828 903 1448 1529 
Q 2069 2156 2228 2338 
Q 2531 2678 2651 2914 
Q 2772 3150 2772 3378 
Q 2772 3750 2511 3984 
Q 2250 4219 1831 4219 
Q 1534 4219 1204 4116 
Q 875 4013 500 3803 
L 500 4441 
Q 881 4594 1212 4672 
Q 1544 4750 1819 4750 
Q 2544 4750 2975 4387 
Q 3406 4025 3406 3419 
Q 3406 3131 3298 2873 
Q 3191 2616 2906 2266 
Q 2828 2175 2409 1742 
Q 1991 1309 1228 531 
z
" transform="scale(0.015625)"/>
       </defs>
       <use xlink:href="#DejaVuSans-2212"/>
       <use xlink:href="#DejaVuSans-32" x="83.789062"/>
      </g>
     </g>
    </g>
    <g id="xtick_6">
     <g id="line2d_6">
      <g>
       <use xlink:href="#m193e1c2389" x="237.378333" y="108.61" style="stroke: #000000; stroke-width: 0.8"/>
      </g>
     </g>
     <g id="text_6">
      <!-- 0 -->
      <g transform="translate(234.833333 121.68875) scale(0.08 -0.08)">
       <use xlink:href="#DejaVuSans-30"/>
      </g>
     </g>
    </g>
    <g id="xtick_7">
     <g id="line2d_7">
      <g>
       <use xlink:href="#m193e1c2389" x="276.8175" y="108.61" style="stroke: #000000; stroke-width: 0.8"/>
      </g>
     </g>
     <g id="text_7">
      <!-- 2 -->
      <g transform="translate(274.2725 121.68875) scale(0.08 -0.08)">
       <use xlink:href="#DejaVuSans-32"/>
      </g>
     </g>
    </g>
    <g id="text_8">
     <!-- $l_0$ -->
     <g transform="translate(155.46 133.43125) scale(0.08 -0.08)">
      <defs>
       <path id="DejaVuSans-Oblique-6c" d="M 1172 4863 
L 1747 4863 
L 800 0 
L 225 0 
L 1172 4863 
z
" transform="scale(0.015625)"/>
      </defs>
      <use xlink:href="#DejaVuSans-Oblique-6c" transform="translate(0 0.015625)"/>
      <use xlink:href="#DejaVuSans-30" transform="translate(27.783203 -16.390625) scale(0.7)"/>
     </g>
    </g>
   </g>
   <g id="matplotlib.axis_2">
    <g id="ytick_1">
     <g id="line2d_8">
      <defs>
       <path id="m4b7f25b66c" d="M 0 0 
L -3.5 0 
" style="stroke: #000000; stroke-width: 0.8"/>
      </defs>
      <g>
       <use xlink:href="#m4b7f25b66c" x="40.1825" y="108.61" style="stroke: #000000; stroke-width: 0.8"/>
      </g>
     </g>
     <g id="text_9">
      <!-- 0.0 -->
      <g transform="translate(20.46 111.649375) scale(0.08 -0.08)">
       <defs>
        <path id="DejaVuSans-2e" d="M 684 794 
L 1344 794 
L 1344 0 
L 684 0 
L 684 794 
z
" transform="scale(0.015625)"/>
       </defs>
       <use xlink:href="#DejaVuSans-30"/>
       <use xlink:href="#DejaVuSans-2e" x="63.623047"/>
       <use xlink:href="#DejaVuSans-30" x="95.410156"/>
      </g>
     </g>
    </g>
    <g id="ytick_2">
     <g id="line2d_9">
      <g>
       <use xlink:href="#m4b7f25b66c" x="40.1825" y="92.458333" style="stroke: #000000; stroke-width: 0.8"/>
      </g>
     </g>
     <g id="text_10">
      <!-- 0.5 -->
      <g transform="translate(20.46 95.497708) scale(0.08 -0.08)">
       <defs>
        <path id="DejaVuSans-35" d="M 691 4666 
L 3169 4666 
L 3169 4134 
L 1269 4134 
L 1269 2991 
Q 1406 3038 1543 3061 
Q 1681 3084 1819 3084 
Q 2600 3084 3056 2656 
Q 3513 2228 3513 1497 
Q 3513 744 3044 326 
Q 2575 -91 1722 -91 
Q 1428 -91 1123 -41 
Q 819 9 494 109 
L 494 744 
Q 775 591 1075 516 
Q 1375 441 1709 441 
Q 2250 441 2565 725 
Q 2881 1009 2881 1497 
Q 2881 1984 2565 2268 
Q 2250 2553 1709 2553 
Q 1456 2553 1204 2497 
Q 953 2441 691 2322 
L 691 4666 
z
" transform="scale(0.015625)"/>
       </defs>
       <use xlink:href="#DejaVuSans-30"/>
       <use xlink:href="#DejaVuSans-2e" x="63.623047"/>
       <use xlink:href="#DejaVuSans-35" x="95.410156"/>
      </g>
     </g>
    </g>
    <g id="ytick_3">
     <g id="line2d_10">
      <g>
       <use xlink:href="#m4b7f25b66c" x="40.1825" y="76.306667" style="stroke: #000000; stroke-width: 0.8"/>
      </g>
     </g>
     <g id="text_11">
      <!-- 1.0 -->
      <g transform="translate(20.46 79.346042) scale(0.08 -0.08)">
       <use xlink:href="#DejaVuSans-31"/>
       <use xlink:href="#DejaVuSans-2e" x="63.623047"/>
       <use xlink:href="#DejaVuSans-30" x="95.410156"/>
      </g>
     </g>
    </g>
    <g id="ytick_4">
     <g id="line2d_11">
      <g>
       <use xlink:href="#m4b7f25b66c" x="40.1825" y="60.155" style="stroke: #000000; stroke-width: 0.8"/>
      </g>
     </g>
     <g id="text_12">
      <!-- 1.5 -->
      <g transform="translate(20.46 63.194375) scale(0.08 -0.08)">
       <use xlink:href="#DejaVuSans-31"/>
       <use xlink:href="#DejaVuSans-2e" x="63.623047"/>
       <use xlink:href="#DejaVuSans-35" x="95.410156"/>
      </g>
     </g>
    </g>
    <g id="ytick_5">
     <g id="line2d_12">
      <g>
       <use xlink:href="#m4b7f25b66c" x="40.1825" y="44.003333" style="stroke: #000000; stroke-width: 0.8"/>
      </g>
     </g>
     <g id="text_13">
      <!-- 2.0 -->
      <g transform="translate(20.46 47.042708) scale(0.08 -0.08)">
       <use xlink:href="#DejaVuSans-32"/>
       <use xlink:href="#DejaVuSans-2e" x="63.623047"/>
       <use xlink:href="#DejaVuSans-30" x="95.410156"/>
      </g>
     </g>
    </g>
    <g id="ytick_6">
     <g id="line2d_13">
      <g>
       <use xlink:href="#m4b7f25b66c" x="40.1825" y="27.851667" style="stroke: #000000; stroke-width: 0.8"/>
      </g>
     </g>
     <g id="text_14">
      <!-- 2.5 -->
      <g transform="translate(20.46 30.891042) scale(0.08 -0.08)">
       <use xlink:href="#DejaVuSans-32"/>
       <use xlink:href="#DejaVuSans-2e" x="63.623047"/>
       <use xlink:href="#DejaVuSans-35" x="95.410156"/>
      </g>
     </g>
    </g>
    <g id="ytick_7">
     <g id="line2d_14">
      <g>
       <use xlink:href="#m4b7f25b66c" x="40.1825" y="11.7" style="stroke: #000000; stroke-width: 0.8"/>
      </g>
     </g>
     <g id="text_15">
      <!-- 3.0 -->
      <g transform="translate(20.46 14.739375) scale(0.08 -0.08)">
       <defs>
        <path id="DejaVuSans-33" d="M 2597 2516 
Q 3050 2419 3304 2112 
Q 3559 1806 3559 1356 
Q 3559 666 3084 287 
Q 2609 -91 1734 -91 
Q 1441 -91 1130 -33 
Q 819 25 488 141 
L 488 750 
Q 750 597 1062 519 
Q 1375 441 1716 441 
Q 2309 441 2620 675 
Q 2931 909 2931 1356 
Q 2931 1769 2642 2001 
Q 2353 2234 1838 2234 
L 1294 2234 
L 1294 2753 
L 1863 2753 
Q 2328 2753 2575 2939 
Q 2822 3125 2822 3475 
Q 2822 3834 2567 4026 
Q 2313 4219 1838 4219 
Q 1578 4219 1281 4162 
Q 984 4106 628 3988 
L 628 4550 
Q 988 4650 1302 4700 
Q 1616 4750 1894 4750 
Q 2613 4750 3031 4423 
Q 3450 4097 3450 3541 
Q 3450 3153 3228 2886 
Q 3006 2619 2597 2516 
z
" transform="scale(0.015625)"/>
       </defs>
       <use xlink:href="#DejaVuSans-33"/>
       <use xlink:href="#DejaVuSans-2e" x="63.623047"/>
       <use xlink:href="#DejaVuSans-30" x="95.410156"/>
      </g>
     </g>
    </g>
    <g id="text_16">
     <!-- $l_1$ -->
     <g transform="translate(14.79625 63.195) rotate(-90) scale(0.08 -0.08)">
      <use xlink:href="#DejaVuSans-Oblique-6c" transform="translate(0 0.015625)"/>
      <use xlink:href="#DejaVuSans-31" transform="translate(27.783203 -16.390625) scale(0.7)"/>
     </g>
    </g>
   </g>
   <g id="PathCollection_2">
    <path d="M 40.1825 89.930403 
L 40.656718 89.97123 
L 41.130937 90.012327 
L 41.605155 90.053695 
L 42.079374 90.095338 
L 42.553592 90.137257 
L 43.027811 90.179455 
L 43.225304 90.1971 
L 43.502029 90.220045 
L 43.976247 90.259556 
L 44.450466 90.299331 
L 44.924684 90.339374 
L 45.398903 90.379686 
L 45.873121 90.42027 
L 46.34734 90.461129 
L 46.821558 90.502264 
L 47.295777 90.543679 
L 47.769995 90.585375 
L 48.244213 90.627356 
L 48.718432 90.669624 
L 48.85287 90.68165 
L 49.19265 90.709799 
L 49.666869 90.749305 
L 50.141087 90.789083 
L 50.615306 90.829136 
L 51.089524 90.869465 
L 51.563742 90.910074 
L 52.037961 90.950965 
L 52.512179 90.992141 
L 52.986398 91.033605 
L 53.460616 91.075358 
L 53.934835 91.117404 
L 54.409053 91.159746 
L 54.481117 91.1662 
L 54.883272 91.199487 
L 55.35749 91.238987 
L 55.831708 91.278768 
L 56.305927 91.31883 
L 56.780145 91.359177 
L 57.254364 91.399812 
L 57.728582 91.440737 
L 58.202801 91.481956 
L 58.677019 91.52347 
L 59.151237 91.565283 
L 59.625456 91.607398 
L 60.099674 91.649817 
L 60.110078 91.65075 
L 60.573893 91.689103 
L 61.048111 91.728598 
L 61.52233 91.76838 
L 61.996548 91.808452 
L 62.470767 91.848818 
L 62.944985 91.88948 
L 63.419203 91.930441 
L 63.893422 91.971704 
L 64.36764 92.013272 
L 64.841859 92.055147 
L 65.316077 92.097334 
L 65.739918 92.1353 
L 65.790296 92.139451 
L 66.264514 92.178645 
L 66.738732 92.218133 
L 67.212951 92.257916 
L 67.687169 92.297999 
L 68.161388 92.338384 
L 68.635606 92.379074 
L 69.109825 92.420072 
L 69.584043 92.461382 
L 70.058262 92.503006 
L 70.53248 92.544948 
L 71.006698 92.58721 
L 71.370584 92.61985 
L 71.480917 92.628931 
L 71.955135 92.668108 
L 72.429354 92.707588 
L 72.903572 92.747372 
L 73.377791 92.787465 
L 73.852009 92.82787 
L 74.326227 92.868589 
L 74.800446 92.909626 
L 75.274664 92.950985 
L 75.748883 92.992668 
L 76.223101 93.03468 
L 76.69732 93.077023 
L 77.002099 93.1044 
L 77.171538 93.118328 
L 77.645757 93.157487 
L 78.119975 93.196958 
L 78.594193 93.236743 
L 79.068412 93.276846 
L 79.54263 93.317271 
L 80.016849 93.35802 
L 80.491067 93.399098 
L 80.965286 93.440509 
L 81.439504 93.482254 
L 81.913722 93.524339 
L 82.387941 93.566767 
L 82.634514 93.58895 
L 82.862159 93.607638 
L 83.336378 93.646777 
L 83.810596 93.686236 
L 84.284815 93.726021 
L 84.759033 93.766135 
L 85.233252 93.80658 
L 85.70747 93.847362 
L 86.181688 93.888483 
L 86.655907 93.929947 
L 87.130125 93.971759 
L 87.604344 94.013922 
L 88.078562 94.05644 
L 88.26789 94.0735 
L 88.552781 94.096854 
L 89.026999 94.13597 
L 89.501217 94.175418 
L 89.975436 94.215202 
L 90.449654 94.255326 
L 90.923873 94.295793 
L 91.398091 94.336608 
L 91.703883 94.363153 
" clip-path="url(#p16b2f66574)" style="fill: none; stroke: #99ad88"/>
    <path d="M 119.546251 96.754736 
L 214.220666 104.830366 
L 229.395656 106.087429 
L 234.137841 106.451383 
L 244.096428 107.212104 
L 249.312831 107.554491 
L 251.683923 107.667075 
L 259.745636 107.722155 
L 265.436258 107.537623 
L 270.65266 107.203245 
L 273.497971 106.984837 
L 276.8175 106.743651 
L 276.8175 106.743651 
" clip-path="url(#p16b2f66574)" style="fill: none; stroke: #99ad88"/>
   </g>
   <g id="PathCollection_3">
    <path d="M 40.1825 71.04797 
L 139.294153 88.293851 
L 169.169915 93.448877 
L 177.347224 94.853887 
L 177.347224 94.853887 
" clip-path="url(#p16b2f66574)" style="fill: none; stroke: #6b8d93"/>
    <path d="M 199.879965 98.705762 
L 230.344093 103.806554 
L 238.880025 105.154343 
L 242.478611 105.7027 
L 249.312831 106.58303 
L 251.209704 106.764828 
L 256.900326 107.097113 
L 259.745636 107.02371 
L 264.962039 106.62315 
L 276.8175 104.964203 
L 276.8175 104.964203 
" clip-path="url(#p16b2f66574)" style="fill: none; stroke: #6b8d93"/>
   </g>
   <g id="PathCollection_4">
    <path d="M 40.1825 29.613644 
L 40.220675 29.62835 
L 40.656718 29.793916 
L 41.130937 29.975175 
L 41.489142 30.1129 
L 41.605155 30.156861 
L 42.079374 30.337199 
L 42.553592 30.518812 
L 42.758022 30.59745 
L 43.027811 30.699722 
L 43.502029 30.880407 
L 43.976247 31.062378 
L 44.027232 31.082 
L 44.450466 31.242505 
L 44.924684 31.42354 
L 45.297004 31.56655 
L 45.398903 31.605114 
L 45.873121 31.785208 
L 46.34734 31.9666 
L 46.567226 32.0511 
L 46.821558 32.147391 
L 47.295777 32.327834 
L 47.769995 32.509585 
L 47.837787 32.53565 
L 48.244213 32.689585 
L 48.718432 32.870381 
L 49.10888 33.0202 
L 49.19265 33.051861 
L 49.666869 33.231697 
L 50.141087 33.412851 
L 50.380473 33.50475 
L 50.615306 33.593541 
L 51.089524 33.773726 
L 51.563742 33.955242 
L 51.652414 33.9893 
L 52.037961 34.135134 
L 52.512179 34.315674 
L 52.924848 34.47385 
L 52.986398 34.497081 
L 53.460616 34.67664 
L 53.934835 34.85754 
L 54.197842 34.9584 
L 54.409053 35.03815 
L 54.883272 35.218061 
L 55.35749 35.399325 
L 55.471194 35.44295 
L 55.831708 35.579128 
L 56.305927 35.759395 
L 56.744988 35.9275 
L 56.780145 35.940751 
L 57.254364 36.120015 
L 57.728582 36.300644 
L 58.019414 36.41205 
L 58.202801 36.481195 
L 58.677019 36.660813 
L 59.151237 36.841807 
L 59.294208 36.8966 
L 59.625456 37.021544 
L 60.099674 37.201519 
L 60.569381 37.38115 
L 60.573893 37.382848 
L 61.048111 37.561798 
L 61.52233 37.742136 
L 61.845273 37.8657 
L 61.996548 37.922653 
L 62.470767 38.101958 
L 62.944985 38.282663 
L 63.121541 38.35025 
L 63.419203 38.462358 
L 63.759094 38.59113 
" clip-path="url(#p16b2f66574)" style="fill: none; stroke: #43709d"/>
    <path d="M 80.382924 44.883795 
L 129.809785 63.376612 
L 150.201177 70.892857 
L 192.880837 86.321172 
L 230.875476 99.40355 
L 247.031518 104.24905 
L 253.106578 105.457579 
L 255.951889 105.745443 
L 258.797199 105.737497 
L 260.694073 105.560465 
L 264.013602 105.024651 
L 268.281568 104.036733 
L 273.497971 102.581514 
L 276.8175 101.577016 
L 276.8175 101.577016 
" clip-path="url(#p16b2f66574)" style="fill: none; stroke: #43709d"/>
   </g>
   <g id="PathCollection_5">
    <path d="M 157.128251 11.7 
L 157.314454 11.972304 
L 157.458824 12.18455 
L 157.788672 12.66659 
L 157.790381 12.6691 
L 158.123593 13.15365 
L 158.262891 13.354971 
L 158.457808 13.6382 
L 158.737109 14.041561 
L 158.793024 14.12275 
L 159.12964 14.6073 
L 159.211328 14.723953 
L 159.467537 15.09185 
L 159.685546 15.402923 
L 159.806453 15.5764 
L 160.146456 16.06095 
L 160.159765 16.079725 
L 160.488077 16.5455 
L 160.633983 16.751157 
L 160.830733 17.03005 
L 161.108201 17.4208 
L 161.174431 17.5146 
L 161.519489 17.99915 
L 161.58242 18.086754 
L 161.865928 18.4837 
L 162.056638 18.748929 
L 162.213427 18.96825 
L 162.530857 19.409287 
L 162.561992 19.4528 
L 162.912099 19.93735 
L 163.005075 20.065018 
L 163.263441 20.4219 
L 163.479294 20.717987 
L 163.615869 20.90645 
L 163.953512 21.369114 
L 163.969388 21.391 
L 164.324535 21.87555 
L 164.42773 22.015272 
L 164.680866 22.3601 
L 164.901949 22.659098 
L 165.03831 22.84465 
L 165.376167 23.301059 
L 165.396871 23.3292 
L 165.757042 23.81375 
L 165.850386 23.938316 
L 166.118452 24.2983 
L 166.324604 24.573075 
L 166.481 24.78285 
L 166.798823 25.205947 
L 166.844692 25.2674 
L 167.209871 25.75195 
L 167.273041 25.835004 
L 167.576448 26.2365 
L 167.74726 26.460784 
L 167.94419 26.72105 
L 168.221478 27.084659 
L 168.313106 27.2056 
L 168.683268 27.69015 
L 168.695696 27.706242 
L 169.055103 28.1747 
L 169.169915 28.323145 
L 169.428132 28.65925 
L 169.644133 28.938128 
L 169.802363 29.1438 
L 170.118352 29.551183 
L 170.177802 29.62835 
L 170.554665 30.1129 
L 170.59257 30.161136 
L 170.728765 30.335653 
" clip-path="url(#p16b2f66574)" style="fill: none; stroke: #1c3f83"/>
    <path d="M 182.006978 44.071996 
L 186.783962 49.4949 
L 193.045569 56.2786 
L 199.651817 63.0623 
L 206.158953 69.388423 
L 212.444674 75.17605 
L 219.437069 81.241856 
L 224.179254 85.132577 
L 228.447219 88.47162 
L 232.715185 91.650959 
L 238.880025 95.896213 
L 241.725336 97.693048 
L 244.628565 99.40355 
L 248.838612 101.532141 
L 251.209704 102.495208 
L 253.580797 103.221122 
L 255.003452 103.490962 
L 256.900326 103.670709 
L 258.797199 103.59017 
L 260.748763 103.27995 
L 263.539384 102.427624 
L 265.073716 101.8263 
L 269.230005 99.780844 
L 273.212769 97.46535 
L 276.8175 95.14239 
L 276.8175 95.14239 
" clip-path="url(#p16b2f66574)" style="fill: none; stroke: #1c3f83"/>
   </g>
   <g id="PathCollection_6">
    <path d="M 273.068451 79.601538 
L 273.043754 77.5988 
L 272.828134 75.6606 
L 272.408656 73.7224 
L 271.754406 71.7842 
L 271.084841 70.33055 
L 270.178442 68.80078 
L 269.140859 67.42325 
L 267.746492 65.9696 
L 266.384694 64.858565 
L 264.962039 63.94372 
L 263.065165 63.032018 
L 261.168292 62.412556 
L 259.271418 62.049267 
L 257.374544 61.921979 
L 255.47767 62.025502 
L 253.580797 62.36395 
L 251.683923 62.955738 
L 249.787049 63.835069 
L 248.364394 64.72011 
L 246.809199 65.9696 
L 245.414059 67.42325 
L 244.327649 68.8769 
L 243.471 70.33055 
L 242.611895 72.26875 
L 242.020697 74.20695 
L 241.653841 76.14515 
L 241.48864 78.08335 
L 241.536535 80.5061 
L 241.849322 82.92885 
L 242.418195 85.3516 
L 243.24137 87.77435 
L 244.332954 90.1971 
L 245.519083 92.29845 
L 246.716472 94.0735 
L 248.364394 96.093414 
L 249.787049 97.52981 
L 251.487678 98.919 
L 253.106578 99.921492 
L 254.529233 100.534749 
L 255.951889 100.912582 
L 257.374544 101.018481 
L 258.911818 100.8572 
L 260.477828 100.37265 
L 262.116728 99.538182 
L 263.071505 98.919 
L 264.962039 97.346553 
L 266.384694 95.874288 
L 267.840226 94.0735 
L 269.230005 91.981488 
L 269.440362 91.629867 
L 269.440362 91.629867 
" clip-path="url(#p16b2f66574)" style="fill: none; stroke: #00054a"/>
   </g>
   <g id="patch_3">
    <path d="M 40.1825 108.61 
L 40.1825 11.7 
" style="fill: none; stroke: #000000; stroke-width: 0.8; stroke-linejoin: miter; stroke-linecap: square"/>
   </g>
   <g id="patch_4">
    <path d="M 276.8175 108.61 
L 276.8175 11.7 
" style="fill: none; stroke: #000000; stroke-width: 0.8; stroke-linejoin: miter; stroke-linecap: square"/>
   </g>
   <g id="patch_5">
    <path d="M 40.1825 108.61 
L 276.8175 108.61 
" style="fill: none; stroke: #000000; stroke-width: 0.8; stroke-linejoin: miter; stroke-linecap: square"/>
   </g>
   <g id="patch_6">
    <path d="M 40.1825 11.7 
L 276.8175 11.7 
" style="fill: none; stroke: #000000; stroke-width: 0.8; stroke-linejoin: miter; stroke-linecap: square"/>
   </g>
   <g id="text_17">
    <g clip-path="url(#p16b2f66574)">
     <!-- −1023 -->
     <g style="fill: #99ad88" transform="translate(91.953518 96.6055) rotate(-355.091824) scale(0.08 -0.08)">
      <use xlink:href="#DejaVuSans-2212"/>
      <use xlink:href="#DejaVuSans-31" x="83.789062"/>
      <use xlink:href="#DejaVuSans-30" x="147.412109"/>
      <use xlink:href="#DejaVuSans-32" x="211.035156"/>
      <use xlink:href="#DejaVuSans-33" x="274.658203"/>
     </g>
    </g>
   </g>
   <g id="text_18">
    <g clip-path="url(#p16b2f66574)">
     <!-- −255 -->
     <g style="fill: #6b8d93" transform="translate(177.411148 97.109667) rotate(-350.303287) scale(0.08 -0.08)">
      <use xlink:href="#DejaVuSans-2212"/>
      <use xlink:href="#DejaVuSans-32" x="83.789062"/>
      <use xlink:href="#DejaVuSans-35" x="147.412109"/>
      <use xlink:href="#DejaVuSans-35" x="211.035156"/>
     </g>
    </g>
   </g>
   <g id="text_19">
    <g clip-path="url(#p16b2f66574)">
     <!-- −63 -->
     <g style="fill: #43709d" transform="translate(63.392591 40.818071) rotate(-339.266778) scale(0.08 -0.08)">
      <use xlink:href="#DejaVuSans-2212"/>
      <use xlink:href="#DejaVuSans-36" x="83.789062"/>
      <use xlink:href="#DejaVuSans-33" x="147.412109"/>
     </g>
    </g>
   </g>
   <g id="text_20">
    <g clip-path="url(#p16b2f66574)">
     <!-- −15 -->
     <g style="fill: #1c3f83" transform="translate(169.220311 32.149487) rotate(-309.386081) scale(0.08 -0.08)">
      <use xlink:href="#DejaVuSans-2212"/>
      <use xlink:href="#DejaVuSans-31" x="83.789062"/>
      <use xlink:href="#DejaVuSans-35" x="147.412109"/>
     </g>
    </g>
   </g>
   <g id="text_21">
    <g clip-path="url(#p16b2f66574)">
     <!-- −3 -->
     <g style="fill: #00054a" transform="translate(272.398994 92.119581) rotate(-73.17189) scale(0.08 -0.08)">
      <use xlink:href="#DejaVuSans-2212"/>
      <use xlink:href="#DejaVuSans-33" x="83.789062"/>
     </g>
    </g>
   </g>
   <g id="legend_1">
    <g id="patch_7">
     <path d="M 197.2175 41.6025 
L 271.2175 41.6025 
Q 272.8175 41.6025 272.8175 40.0025 
L 272.8175 17.3 
Q 272.8175 15.7 271.2175 15.7 
L 197.2175 15.7 
Q 195.6175 15.7 195.6175 17.3 
L 195.6175 40.0025 
Q 195.6175 41.6025 197.2175 41.6025 
z
" style="fill: #ffffff; opacity: 0.8; stroke: #cccccc; stroke-linejoin: miter"/>
    </g>
    <g id="PathCollection_7">
     <path d="M 206.8175 24.37875 
C 207.215305 24.37875 207.59687 24.220701 207.87816 23.93941 
C 208.159451 23.65812 208.3175 23.276555 208.3175 22.87875 
C 208.3175 22.480945 208.159451 22.09938 207.87816 21.81809 
C 207.59687 21.536799 207.215305 21.37875 206.8175 21.37875 
C 206.419695 21.37875 206.03813 21.536799 205.75684 21.81809 
C 205.475549 22.09938 205.3175 22.480945 205.3175 22.87875 
C 205.3175 23.276555 205.475549 23.65812 205.75684 23.93941 
C 206.03813 24.220701 206.419695 24.37875 206.8175 24.37875 
z
"/>
    </g>
    <g id="text_22">
     <!-- True value -->
     <g transform="translate(221.2175 24.97875) scale(0.08 -0.08)">
      <defs>
       <path id="DejaVuSans-54" d="M -19 4666 
L 3928 4666 
L 3928 4134 
L 2272 4134 
L 2272 0 
L 1638 0 
L 1638 4134 
L -19 4134 
L -19 4666 
z
" transform="scale(0.015625)"/>
       <path id="DejaVuSans-72" d="M 2631 2963 
Q 2534 3019 2420 3045 
Q 2306 3072 2169 3072 
Q 1681 3072 1420 2755 
Q 1159 2438 1159 1844 
L 1159 0 
L 581 0 
L 581 3500 
L 1159 3500 
L 1159 2956 
Q 1341 3275 1631 3429 
Q 1922 3584 2338 3584 
Q 2397 3584 2469 3576 
Q 2541 3569 2628 3553 
L 2631 2963 
z
" transform="scale(0.015625)"/>
       <path id="DejaVuSans-75" d="M 544 1381 
L 544 3500 
L 1119 3500 
L 1119 1403 
Q 1119 906 1312 657 
Q 1506 409 1894 409 
Q 2359 409 2629 706 
Q 2900 1003 2900 1516 
L 2900 3500 
L 3475 3500 
L 3475 0 
L 2900 0 
L 2900 538 
Q 2691 219 2414 64 
Q 2138 -91 1772 -91 
Q 1169 -91 856 284 
Q 544 659 544 1381 
z
M 1991 3584 
L 1991 3584 
z
" transform="scale(0.015625)"/>
       <path id="DejaVuSans-65" d="M 3597 1894 
L 3597 1613 
L 953 1613 
Q 991 1019 1311 708 
Q 1631 397 2203 397 
Q 2534 397 2845 478 
Q 3156 559 3463 722 
L 3463 178 
Q 3153 47 2828 -22 
Q 2503 -91 2169 -91 
Q 1331 -91 842 396 
Q 353 884 353 1716 
Q 353 2575 817 3079 
Q 1281 3584 2069 3584 
Q 2775 3584 3186 3129 
Q 3597 2675 3597 1894 
z
M 3022 2063 
Q 3016 2534 2758 2815 
Q 2500 3097 2075 3097 
Q 1594 3097 1305 2825 
Q 1016 2553 972 2059 
L 3022 2063 
z
" transform="scale(0.015625)"/>
       <path id="DejaVuSans-20" transform="scale(0.015625)"/>
       <path id="DejaVuSans-76" d="M 191 3500 
L 800 3500 
L 1894 563 
L 2988 3500 
L 3597 3500 
L 2284 0 
L 1503 0 
L 191 3500 
z
" transform="scale(0.015625)"/>
       <path id="DejaVuSans-61" d="M 2194 1759 
Q 1497 1759 1228 1600 
Q 959 1441 959 1056 
Q 959 750 1161 570 
Q 1363 391 1709 391 
Q 2188 391 2477 730 
Q 2766 1069 2766 1631 
L 2766 1759 
L 2194 1759 
z
M 3341 1997 
L 3341 0 
L 2766 0 
L 2766 531 
Q 2569 213 2275 61 
Q 1981 -91 1556 -91 
Q 1019 -91 701 211 
Q 384 513 384 1019 
Q 384 1609 779 1909 
Q 1175 2209 1959 2209 
L 2766 2209 
L 2766 2266 
Q 2766 2663 2505 2880 
Q 2244 3097 1772 3097 
Q 1472 3097 1187 3025 
Q 903 2953 641 2809 
L 641 3341 
Q 956 3463 1253 3523 
Q 1550 3584 1831 3584 
Q 2591 3584 2966 3190 
Q 3341 2797 3341 1997 
z
" transform="scale(0.015625)"/>
       <path id="DejaVuSans-6c" d="M 603 4863 
L 1178 4863 
L 1178 0 
L 603 0 
L 603 4863 
z
" transform="scale(0.015625)"/>
      </defs>
      <use xlink:href="#DejaVuSans-54"/>
      <use xlink:href="#DejaVuSans-72" x="46.333984"/>
      <use xlink:href="#DejaVuSans-75" x="87.447266"/>
      <use xlink:href="#DejaVuSans-65" x="150.826172"/>
      <use xlink:href="#DejaVuSans-20" x="212.349609"/>
      <use xlink:href="#DejaVuSans-76" x="244.136719"/>
      <use xlink:href="#DejaVuSans-61" x="303.316406"/>
      <use xlink:href="#DejaVuSans-6c" x="364.595703"/>
      <use xlink:href="#DejaVuSans-75" x="392.378906"/>
      <use xlink:href="#DejaVuSans-65" x="455.757812"/>
     </g>
    </g>
    <g id="line2d_15">
     <path d="M 198.8175 33.9225 
L 206.8175 33.9225 
L 214.8175 33.9225 
" style="fill: none; stroke: #000000; stroke-linecap: square"/>
    </g>
    <g id="text_23">
     <!-- $\log_{10} p(l_0, l_1)$ -->
     <g transform="translate(221.2175 36.7225) scale(0.08 -0.08)">
      <defs>
       <path id="DejaVuSans-6f" d="M 1959 3097 
Q 1497 3097 1228 2736 
Q 959 2375 959 1747 
Q 959 1119 1226 758 
Q 1494 397 1959 397 
Q 2419 397 2687 759 
Q 2956 1122 2956 1747 
Q 2956 2369 2687 2733 
Q 2419 3097 1959 3097 
z
M 1959 3584 
Q 2709 3584 3137 3096 
Q 3566 2609 3566 1747 
Q 3566 888 3137 398 
Q 2709 -91 1959 -91 
Q 1206 -91 779 398 
Q 353 888 353 1747 
Q 353 2609 779 3096 
Q 1206 3584 1959 3584 
z
" transform="scale(0.015625)"/>
       <path id="DejaVuSans-67" d="M 2906 1791 
Q 2906 2416 2648 2759 
Q 2391 3103 1925 3103 
Q 1463 3103 1205 2759 
Q 947 2416 947 1791 
Q 947 1169 1205 825 
Q 1463 481 1925 481 
Q 2391 481 2648 825 
Q 2906 1169 2906 1791 
z
M 3481 434 
Q 3481 -459 3084 -895 
Q 2688 -1331 1869 -1331 
Q 1566 -1331 1297 -1286 
Q 1028 -1241 775 -1147 
L 775 -588 
Q 1028 -725 1275 -790 
Q 1522 -856 1778 -856 
Q 2344 -856 2625 -561 
Q 2906 -266 2906 331 
L 2906 616 
Q 2728 306 2450 153 
Q 2172 0 1784 0 
Q 1141 0 747 490 
Q 353 981 353 1791 
Q 353 2603 747 3093 
Q 1141 3584 1784 3584 
Q 2172 3584 2450 3431 
Q 2728 3278 2906 2969 
L 2906 3500 
L 3481 3500 
L 3481 434 
z
" transform="scale(0.015625)"/>
       <path id="DejaVuSans-Oblique-70" d="M 3175 2156 
Q 3175 2616 2975 2859 
Q 2775 3103 2400 3103 
Q 2144 3103 1911 2972 
Q 1678 2841 1497 2591 
Q 1319 2344 1212 1994 
Q 1106 1644 1106 1300 
Q 1106 863 1306 627 
Q 1506 391 1875 391 
Q 2147 391 2380 519 
Q 2613 647 2778 891 
Q 2956 1147 3065 1494 
Q 3175 1841 3175 2156 
z
M 1394 2969 
Q 1625 3272 1939 3428 
Q 2253 3584 2638 3584 
Q 3175 3584 3472 3232 
Q 3769 2881 3769 2247 
Q 3769 1728 3584 1258 
Q 3400 788 3053 416 
Q 2822 169 2531 39 
Q 2241 -91 1919 -91 
Q 1547 -91 1294 64 
Q 1041 219 916 525 
L 556 -1331 
L -19 -1331 
L 922 3500 
L 1497 3500 
L 1394 2969 
z
" transform="scale(0.015625)"/>
       <path id="DejaVuSans-28" d="M 1984 4856 
Q 1566 4138 1362 3434 
Q 1159 2731 1159 2009 
Q 1159 1288 1364 580 
Q 1569 -128 1984 -844 
L 1484 -844 
Q 1016 -109 783 600 
Q 550 1309 550 2009 
Q 550 2706 781 3412 
Q 1013 4119 1484 4856 
L 1984 4856 
z
" transform="scale(0.015625)"/>
       <path id="DejaVuSans-2c" d="M 750 794 
L 1409 794 
L 1409 256 
L 897 -744 
L 494 -744 
L 750 256 
L 750 794 
z
" transform="scale(0.015625)"/>
       <path id="DejaVuSans-29" d="M 513 4856 
L 1013 4856 
Q 1481 4119 1714 3412 
Q 1947 2706 1947 2009 
Q 1947 1309 1714 600 
Q 1481 -109 1013 -844 
L 513 -844 
Q 928 -128 1133 580 
Q 1338 1288 1338 2009 
Q 1338 2731 1133 3434 
Q 928 4138 513 4856 
z
" transform="scale(0.015625)"/>
      </defs>
      <use xlink:href="#DejaVuSans-6c" transform="translate(0 0.015625)"/>
      <use xlink:href="#DejaVuSans-6f" transform="translate(27.783203 0.015625)"/>
      <use xlink:href="#DejaVuSans-67" transform="translate(88.964844 0.015625)"/>
      <use xlink:href="#DejaVuSans-31" transform="translate(153.398438 -16.390625) scale(0.7)"/>
      <use xlink:href="#DejaVuSans-30" transform="translate(197.93457 -16.390625) scale(0.7)"/>
      <use xlink:href="#DejaVuSans-Oblique-70" transform="translate(261.440754 0.015625)"/>
      <use xlink:href="#DejaVuSans-28" transform="translate(324.917317 0.015625)"/>
      <use xlink:href="#DejaVuSans-Oblique-6c" transform="translate(363.930989 0.015625)"/>
      <use xlink:href="#DejaVuSans-30" transform="translate(391.714192 -16.390625) scale(0.7)"/>
      <use xlink:href="#DejaVuSans-2c" transform="translate(438.9847 0.015625)"/>
      <use xlink:href="#DejaVuSans-Oblique-6c" transform="translate(490.254231 0.015625)"/>
      <use xlink:href="#DejaVuSans-31" transform="translate(518.037434 -16.390625) scale(0.7)"/>
      <use xlink:href="#DejaVuSans-29" transform="translate(565.307942 0.015625)"/>
     </g>
    </g>
   </g>
  </g>
 </g>
 <defs>
  <clipPath id="p16b2f66574">
   <rect x="40.1825" y="11.7" width="236.635" height="96.91"/>
  </clipPath>
 </defs>
</svg>
